<?xml version="1.0" encoding="utf-8" standalone="no"?>
<!DOCTYPE svg PUBLIC "-//W3C//DTD SVG 1.1//EN"
  "http://www.w3.org/Graphics/SVG/1.1/DTD/svg11.dtd">
<!-- Created with matplotlib (http://matplotlib.org/) -->
<svg height="432pt" version="1.1" viewBox="0 0 576 432" width="576pt" xmlns="http://www.w3.org/2000/svg" xmlns:xlink="http://www.w3.org/1999/xlink">
 <defs>
  <style type="text/css">
*{stroke-linecap:butt;stroke-linejoin:round;stroke-miterlimit:100000;}
  </style>
 </defs>
 <g id="figure_1">
  <g id="patch_1">
   <path d="M 0 432 
L 576 432 
L 576 0 
L 0 0 
z
" style="fill:#ffffff;"/>
  </g>
  <g id="axes_1">
   <g id="patch_2">
    <path d="M 72 388.8 
L 518.4 388.8 
L 518.4 43.2 
L 72 43.2 
z
" style="fill:#ffffff;"/>
   </g>
   <g id="line2d_1">
    <path clip-path="url(#pc013a3cb7e)" d="M 72.637714 246.062698 
L 73.275429 344.804394 
L 79.014857 344.6214 
L 79.652571 46.952229 
L 80.290286 344.691827 
L 82.203429 344.634136 
L 82.841143 46.952229 
L 83.478857 344.705772 
L 85.392 344.647088 
L 86.029714 253.98991 
L 86.667429 46.952229 
L 87.305143 344.717301 
L 89.218286 344.657808 
L 89.856 266.624522 
L 90.493714 46.952229 
L 91.131429 344.726446 
L 93.044571 344.666318 
L 93.682286 263.324892 
L 94.32 46.952229 
L 94.957714 344.73634 
L 96.870857 344.675533 
L 97.508571 273.515428 
L 98.146286 46.952229 
L 98.784 344.744256 
L 100.697143 344.682911 
L 101.334857 270.732986 
L 101.972571 46.952229 
L 102.610286 344.752803 
L 104.523429 344.690881 
L 105.161143 279.34539 
L 105.798857 46.952229 
L 106.436571 344.759636 
L 108.349714 344.697257 
L 108.987429 276.720919 
L 109.625143 46.952229 
L 110.262857 344.767058 
L 112.176 344.704185 
L 112.813714 284.29199 
L 113.451429 46.952229 
L 114.089143 344.77294 
L 116.002286 344.709679 
L 116.64 281.619776 
L 117.277714 46.952229 
L 117.915429 344.779415 
L 119.828571 344.715729 
L 120.466286 288.511225 
L 121.104 46.952229 
L 121.741714 344.784464 
L 123.654857 344.720449 
L 124.292571 285.65834 
L 124.930286 46.952229 
L 125.568 344.790141 
L 127.481143 344.725757 
L 128.118857 292.133915 
L 128.756571 46.952229 
L 129.394286 344.794457 
L 131.307429 344.729794 
L 131.945143 289.001 
L 132.582857 46.952229 
L 133.220571 344.799459 
L 135.133714 344.734474 
L 135.771429 295.26855 
L 136.409143 46.952229 
L 137.046857 344.803128 
L 138.96 344.737908 
L 139.597714 291.76904 
L 140.235429 46.952229 
L 140.873143 344.807563 
L 142.786286 344.74206 
L 143.424 298.005446 
L 144.061714 46.952229 
L 144.699429 344.810657 
L 146.612571 344.744957 
L 147.250286 294.053385 
L 147.888 46.952229 
L 148.525714 344.814617 
L 150.438857 344.748666 
L 151.076571 300.420695 
L 151.714286 46.952229 
L 152.352 344.817196 
L 154.265143 344.751082 
L 154.902857 295.922598 
L 155.540571 46.952229 
L 156.178286 344.817936 
L 158.091429 344.751774 
L 158.729143 275.580924 
L 159.366857 46.952229 
L 160.004571 344.817163 
L 161.917714 344.75105 
L 162.555429 46.952229 
L 163.193143 344.816142 
L 165.106286 344.750094 
L 165.744 46.952229 
L 166.381714 344.816294 
L 168.294857 344.750236 
L 168.932571 46.952229 
L 169.570286 344.816271 
L 171.483429 344.750215 
L 172.121143 46.952229 
L 172.758857 344.816275 
L 174.672 344.750218 
L 175.309714 46.952229 
L 175.947429 344.816274 
L 177.860571 344.750218 
L 178.498286 46.952229 
L 179.136 344.816274 
L 180.411429 344.771757 
L 181.049143 339.385007 
L 181.686857 46.952229 
L 182.324571 344.816099 
L 183.6 344.77159 
L 184.237714 319.561653 
L 184.875429 46.952229 
L 185.513143 344.815481 
L 186.788571 344.770997 
L 187.426286 295.838915 
L 188.064 46.952229 
L 188.701714 344.814802 
L 189.977143 344.770347 
L 190.614857 271.756486 
L 191.252571 46.952229 
L 191.890286 344.81412 
L 193.165714 344.769694 
L 193.803429 247.84744 
L 194.441143 46.952229 
L 195.078857 344.813445 
L 196.354286 344.769048 
L 196.992 46.952229 
L 197.629714 344.813313 
L 198.905143 344.768922 
L 199.542857 46.952229 
L 200.180571 344.813333 
L 201.456 344.76894 
L 202.093714 46.952229 
L 202.731429 344.81333 
L 204.006857 344.768938 
L 204.644571 46.952229 
L 205.282286 344.813331 
L 206.557714 344.768938 
L 207.195429 46.952229 
L 207.833143 344.81333 
L 209.108571 344.768938 
L 209.746286 46.952229 
L 210.384 344.81333 
L 211.659429 344.768938 
L 212.297143 46.952229 
L 212.934857 344.81333 
L 214.210286 344.768938 
L 214.848 46.952229 
L 215.485714 344.81333 
L 216.761143 344.768938 
L 217.398857 46.952229 
L 218.036571 344.81333 
L 218.674286 344.790895 
L 219.312 339.712314 
L 219.949714 46.952229 
L 220.587429 344.813166 
L 221.225143 344.790734 
L 221.862857 327.174881 
L 222.500571 46.952229 
L 223.138286 344.812784 
L 223.776 344.79036 
L 224.413714 312.751075 
L 225.051429 46.952229 
L 225.689143 344.812373 
L 226.326857 344.789957 
L 226.964571 298.2218 
L 227.602286 46.952229 
L 228.24 344.811963 
L 228.877714 344.789556 
L 229.515429 283.86232 
L 230.153143 46.952229 
L 230.790857 344.811559 
L 231.428571 344.789161 
L 232.066286 269.712749 
L 232.704 46.952229 
L 233.341714 344.811161 
L 233.979429 344.788771 
L 234.617143 255.776528 
L 235.254857 46.952229 
L 235.892571 344.810769 
L 236.530286 344.788387 
L 237.168 46.952229 
L 237.805714 344.810339 
L 238.443429 344.787966 
L 239.081143 46.952229 
L 239.718857 344.810403 
L 240.356571 344.788029 
L 240.994286 46.952229 
L 241.632 344.810393 
L 242.269714 344.788019 
L 242.907429 46.952229 
L 243.545143 344.810395 
L 244.182857 344.788021 
L 244.820571 46.952229 
L 245.458286 344.810394 
L 246.096 344.788021 
L 246.733714 46.952229 
L 247.371429 344.810394 
L 248.009143 344.788021 
L 248.646857 46.952229 
L 249.284571 344.810394 
L 249.922286 344.788021 
L 250.56 46.952229 
L 251.197714 344.810394 
L 251.835429 344.788021 
L 252.473143 46.952229 
L 253.110857 344.810394 
L 253.748571 344.788021 
L 254.386286 46.952229 
L 255.024 344.810394 
L 255.661714 344.788021 
L 256.299429 46.952229 
L 256.937143 344.810394 
L 257.574857 344.788021 
L 258.212571 46.952229 
L 258.850286 344.810394 
L 259.488 344.788021 
L 260.125714 46.952229 
L 260.763429 344.810394 
L 261.401143 344.788021 
L 262.038857 46.952229 
L 262.676571 344.810394 
L 263.314286 344.788021 
L 263.952 46.952229 
L 264.589714 344.810394 
L 265.227429 344.788021 
L 265.865143 46.952229 
L 266.502857 344.810394 
L 267.140571 344.788021 
L 267.778286 46.952229 
L 268.416 344.810394 
L 269.053714 344.788021 
L 269.691429 46.952229 
L 270.329143 344.810394 
L 270.966857 344.788021 
L 271.604571 46.952229 
L 272.242286 344.810394 
L 272.88 344.788021 
L 273.517714 46.952229 
L 274.155429 344.810394 
L 274.793143 342.758905 
L 275.430857 46.952229 
L 276.068571 344.810329 
L 276.706286 336.525559 
L 277.344 46.952229 
L 277.981714 344.810137 
L 278.619429 329.190181 
L 279.257143 49.018479 
L 279.894857 344.809928 
L 280.532571 321.799417 
L 281.170286 56.406144 
L 281.808 344.80972 
L 282.445714 314.519542 
L 283.083429 63.670194 
L 283.721143 344.809516 
L 284.358857 307.375014 
L 284.996571 70.797142 
L 285.634286 344.809315 
L 286.272 300.367494 
L 286.909714 77.787092 
L 287.547429 344.809118 
L 288.185143 293.495016 
L 288.822857 84.642288 
L 289.460571 344.808925 
L 290.098286 286.755072 
L 290.736 91.365276 
L 291.373714 344.808736 
L 292.011429 280.14511 
L 292.649143 97.958608 
L 293.286857 344.808551 
L 293.924571 273.662614 
L 294.562286 104.424797 
L 295.2 344.808369 
L 295.837714 267.305115 
L 296.475429 110.766305 
L 297.113143 344.808191 
L 297.750857 261.070191 
L 298.388571 116.985548 
L 299.026286 344.808016 
L 299.664 254.955467 
L 300.301714 123.084895 
L 300.939429 344.807844 
L 301.577143 248.958615 
L 302.214857 129.066667 
L 302.852571 344.807676 
L 303.490286 137.681282 
L 304.128 344.807434 
L 304.765714 136.397449 
L 305.403429 344.80747 
L 306.041143 136.588778 
L 306.678857 344.807465 
L 307.316571 136.560265 
L 307.954286 344.807466 
L 308.592 136.564514 
L 309.229714 344.807466 
L 309.867429 136.563881 
L 310.505143 344.807466 
L 311.142857 136.563975 
L 311.780571 344.807466 
L 312.418286 136.563961 
L 313.056 344.807466 
L 313.693714 136.563963 
L 314.331429 344.807466 
L 314.969143 136.563963 
L 315.606857 344.807466 
L 316.244571 136.563963 
L 316.882286 344.807466 
L 317.52 136.563963 
L 318.157714 344.807466 
L 318.795429 136.563963 
L 319.433143 344.807466 
L 320.070857 136.563963 
L 320.708571 344.807466 
L 321.346286 136.563963 
L 321.984 344.807466 
L 322.621714 136.563963 
L 323.259429 344.807466 
L 323.897143 136.563963 
L 324.534857 344.807466 
L 325.172571 136.563963 
L 325.810286 344.807466 
L 326.448 136.563963 
L 327.085714 344.807466 
L 327.723429 136.563963 
L 328.361143 344.807466 
L 328.998857 136.563963 
L 329.636571 344.807466 
L 330.274286 136.563963 
L 330.912 344.807466 
L 331.549714 136.563963 
L 332.187429 344.807466 
L 332.825143 136.563963 
L 333.462857 344.807466 
L 334.100571 136.563963 
L 334.738286 344.807466 
L 335.376 136.563963 
L 336.013714 344.807466 
L 336.651429 136.563963 
L 337.289143 344.807466 
L 337.926857 136.563963 
L 338.564571 344.807466 
L 339.202286 136.563963 
L 339.84 344.807466 
L 340.477714 136.563963 
L 341.115429 344.807466 
L 341.753143 136.563963 
L 342.390857 344.807466 
L 343.028571 136.563963 
L 343.666286 344.807466 
L 344.304 136.563963 
L 344.941714 344.807466 
L 345.579429 136.563963 
L 346.217143 344.807466 
L 346.854857 136.563963 
L 347.492571 344.807466 
L 348.130286 136.563963 
L 348.768 344.807466 
L 349.405714 136.563963 
L 350.043429 344.807466 
L 350.681143 136.563963 
L 351.318857 344.807466 
L 351.956571 136.563963 
L 352.594286 344.807466 
L 353.232 136.563963 
L 353.869714 344.807466 
L 354.507429 136.563963 
L 355.145143 344.807466 
L 355.782857 136.563963 
L 356.420571 344.807466 
L 357.058286 136.563963 
L 357.696 344.807466 
L 358.333714 136.563963 
L 358.971429 344.807466 
L 359.609143 136.563963 
L 360.246857 344.807466 
L 360.884571 136.563963 
L 361.522286 344.807466 
L 362.16 136.563963 
L 362.797714 344.807466 
L 363.435429 136.563963 
L 364.073143 344.807466 
L 364.710857 136.563963 
L 365.348571 344.807466 
L 365.986286 136.563963 
L 366.624 344.807466 
L 367.261714 136.563963 
L 367.899429 344.807466 
L 368.537143 136.563963 
L 369.174857 344.807466 
L 369.812571 136.563963 
L 370.450286 344.807466 
L 371.088 136.563963 
L 371.725714 344.807466 
L 372.363429 136.563963 
L 373.001143 344.807466 
L 373.638857 136.563963 
L 374.276571 344.807466 
L 374.914286 136.563963 
L 375.552 344.807466 
L 376.189714 136.563963 
L 376.827429 343.669707 
L 377.465143 137.871318 
L 378.102857 341.34912 
L 378.740571 140.342939 
L 379.378286 338.755277 
L 380.016 142.955001 
L 380.653714 336.167917 
L 381.291429 145.538679 
L 381.929143 333.632287 
L 382.566857 148.067148 
L 383.204571 331.154709 
L 383.842286 150.53714 
L 384.48 328.735071 
L 385.117714 152.949273 
L 385.755429 326.372217 
L 386.393143 155.304781 
L 387.030857 324.064847 
L 387.668571 157.604976 
L 388.306286 321.811661 
L 388.944 159.851155 
L 389.581714 319.611386 
L 390.219429 162.044587 
L 390.857143 317.462778 
L 391.494857 164.186513 
L 392.132571 315.364623 
L 392.770286 166.278144 
L 393.408 313.315734 
L 394.045714 168.320662 
L 394.683429 311.314952 
L 395.321143 170.315223 
L 395.958857 309.361147 
L 396.596571 172.262953 
L 397.234286 307.453214 
L 397.872 174.164953 
L 398.509714 305.590075 
L 399.147429 176.022299 
L 399.785143 303.770678 
L 400.422857 177.83604 
L 401.060571 301.993994 
L 401.698286 179.607201 
L 402.336 300.259019 
L 402.973714 181.336782 
L 403.611429 298.564773 
L 404.249143 183.025761 
L 404.886857 296.910299 
L 405.524571 184.675092 
L 406.162286 295.294662 
L 406.8 186.285706 
L 407.437714 293.71695 
L 408.075429 187.858514 
L 408.713143 292.176271 
L 409.350857 189.394403 
L 409.988571 290.671756 
L 410.626286 190.894241 
L 411.264 289.202555 
L 411.901714 192.358876 
L 412.539429 287.767838 
L 413.177143 193.789133 
L 413.814857 286.366794 
L 414.452571 195.185822 
L 415.090286 284.998634 
L 415.728 196.549729 
L 416.365714 283.662585 
L 417.003429 197.881626 
L 417.641143 282.357892 
L 418.278857 199.182264 
L 418.916571 281.083818 
L 419.554286 200.452378 
L 420.192 279.839646 
L 420.829714 201.692684 
L 421.467429 278.624671 
L 422.105143 202.903882 
L 422.742857 277.438209 
L 423.380571 204.086657 
L 424.018286 276.27959 
L 424.656 205.241675 
L 425.293714 275.148161 
L 425.931429 206.369589 
L 426.569143 274.043281 
L 427.206857 207.471034 
L 427.844571 272.964329 
L 428.482286 208.546634 
L 429.12 271.910695 
L 429.757714 209.596993 
L 430.395429 270.881785 
L 431.033143 210.622706 
L 431.670857 269.877019 
L 432.308571 211.62435 
L 432.946286 268.895828 
L 433.584 212.602492 
L 434.221714 267.937661 
L 434.859429 213.557682 
L 435.497143 267.001976 
L 436.134857 214.490459 
L 436.772571 266.088245 
L 437.410286 215.401351 
L 438.048 265.195954 
L 438.685714 216.29087 
L 439.323429 264.324598 
L 439.961143 217.159518 
L 440.598857 263.473686 
L 441.236571 218.007786 
L 441.874286 262.642739 
L 442.512 218.836151 
L 443.149714 261.831288 
L 443.787429 219.645081 
L 444.425143 261.038874 
L 445.062857 220.435033 
L 445.700571 260.265052 
L 446.338286 221.206451 
L 446.976 259.509384 
L 447.613714 221.95977 
L 448.251429 258.771445 
L 448.889143 222.695417 
L 449.526857 258.050819 
L 450.164571 223.413804 
L 450.802286 257.347099 
L 451.44 224.115338 
L 452.077714 256.659888 
L 452.715429 224.800414 
L 453.353143 255.988799 
L 453.990857 225.469418 
L 454.628571 255.333454 
L 455.266286 226.122727 
L 455.904 254.693482 
L 456.541714 226.76071 
L 457.179429 254.068524 
L 457.817143 227.383727 
L 458.454857 253.458227 
L 459.092571 227.992128 
L 459.730286 252.862246 
L 460.368 228.586257 
L 461.005714 252.280247 
L 461.643429 229.166449 
L 462.281143 251.7119 
L 462.918857 229.73303 
L 463.556571 251.156885 
L 464.194286 230.28632 
L 464.832 250.61489 
L 465.469714 230.826632 
L 466.107429 250.085609 
L 466.745143 231.354268 
L 467.382857 249.568744 
L 468.020571 231.869528 
L 468.658286 249.064003 
L 469.296 232.372701 
L 469.933714 248.571102 
L 470.571429 232.864071 
L 471.209143 248.089762 
L 471.846857 233.343915 
L 472.484571 247.619714 
L 473.122286 233.812504 
L 473.76 247.160691 
L 474.397714 234.2701 
L 475.035429 246.712435 
L 475.673143 234.716964 
L 476.310857 246.274694 
L 476.948571 235.153345 
L 477.586286 241.510402 
L 478.224 240.562781 
L 478.861714 240.704039 
L 482.688 240.685714 
L 518.4 240.685714 
L 518.4 240.685714 
" style="fill:none;stroke:#0000ff;stroke-linecap:square;"/>
   </g>
   <g id="patch_3">
    <path d="M 72 388.8 
L 518.4 388.8 
" style="fill:none;stroke:#000000;stroke-linecap:square;stroke-linejoin:miter;"/>
   </g>
   <g id="patch_4">
    <path d="M 72 43.2 
L 518.4 43.2 
" style="fill:none;stroke:#000000;stroke-linecap:square;stroke-linejoin:miter;"/>
   </g>
   <g id="patch_5">
    <path d="M 72 388.8 
L 72 43.2 
" style="fill:none;stroke:#000000;stroke-linecap:square;stroke-linejoin:miter;"/>
   </g>
   <g id="patch_6">
    <path d="M 518.4 388.8 
L 518.4 43.2 
" style="fill:none;stroke:#000000;stroke-linecap:square;stroke-linejoin:miter;"/>
   </g>
   <g id="matplotlib.axis_1">
    <g id="xtick_1">
     <g id="line2d_2">
      <path clip-path="url(#pc013a3cb7e)" d="M 72 388.8 
L 72 43.2 
" style="fill:none;stroke:#000000;stroke-dasharray:1.000000,3.000000;stroke-dashoffset:0.0;stroke-width:0.5;"/>
     </g>
     <g id="line2d_3">
      <defs>
       <path d="M 0 0 
L 0 -4 
" id="m2533a22794" style="stroke:#000000;stroke-width:0.5;"/>
      </defs>
      <g>
       <use style="stroke:#000000;stroke-width:0.5;" x="72.0" xlink:href="#m2533a22794" y="388.8"/>
      </g>
     </g>
     <g id="line2d_4">
      <defs>
       <path d="M 0 0 
L 0 4 
" id="mc6f3032ef9" style="stroke:#000000;stroke-width:0.5;"/>
      </defs>
      <g>
       <use style="stroke:#000000;stroke-width:0.5;" x="72.0" xlink:href="#mc6f3032ef9" y="43.2"/>
      </g>
     </g>
     <g id="text_1">
      <!-- 0 -->
      <defs>
       <path d="M 31.78125 66.40625 
Q 24.171875 66.40625 20.328125 58.90625 
Q 16.5 51.421875 16.5 36.375 
Q 16.5 21.390625 20.328125 13.890625 
Q 24.171875 6.390625 31.78125 6.390625 
Q 39.453125 6.390625 43.28125 13.890625 
Q 47.125 21.390625 47.125 36.375 
Q 47.125 51.421875 43.28125 58.90625 
Q 39.453125 66.40625 31.78125 66.40625 
M 31.78125 74.21875 
Q 44.046875 74.21875 50.515625 64.515625 
Q 56.984375 54.828125 56.984375 36.375 
Q 56.984375 17.96875 50.515625 8.265625 
Q 44.046875 -1.421875 31.78125 -1.421875 
Q 19.53125 -1.421875 13.0625 8.265625 
Q 6.59375 17.96875 6.59375 36.375 
Q 6.59375 54.828125 13.0625 64.515625 
Q 19.53125 74.21875 31.78125 74.21875 
" id="BitstreamVeraSans-Roman-30"/>
      </defs>
      <g transform="translate(69.136875 399.63859375)scale(0.09 -0.09)">
       <use xlink:href="#BitstreamVeraSans-Roman-30"/>
      </g>
     </g>
    </g>
    <g id="xtick_2">
     <g id="line2d_5">
      <path clip-path="url(#pc013a3cb7e)" d="M 135.771429 388.8 
L 135.771429 43.2 
" style="fill:none;stroke:#000000;stroke-dasharray:1.000000,3.000000;stroke-dashoffset:0.0;stroke-width:0.5;"/>
     </g>
     <g id="line2d_6">
      <g>
       <use style="stroke:#000000;stroke-width:0.5;" x="135.771428571" xlink:href="#m2533a22794" y="388.8"/>
      </g>
     </g>
     <g id="line2d_7">
      <g>
       <use style="stroke:#000000;stroke-width:0.5;" x="135.771428571" xlink:href="#mc6f3032ef9" y="43.2"/>
      </g>
     </g>
     <g id="text_2">
      <!-- 10 -->
      <defs>
       <path d="M 12.40625 8.296875 
L 28.515625 8.296875 
L 28.515625 63.921875 
L 10.984375 60.40625 
L 10.984375 69.390625 
L 28.421875 72.90625 
L 38.28125 72.90625 
L 38.28125 8.296875 
L 54.390625 8.296875 
L 54.390625 0 
L 12.40625 0 
z
" id="BitstreamVeraSans-Roman-31"/>
      </defs>
      <g transform="translate(130.045178571 399.63859375)scale(0.09 -0.09)">
       <use xlink:href="#BitstreamVeraSans-Roman-31"/>
       <use x="63.623046875" xlink:href="#BitstreamVeraSans-Roman-30"/>
      </g>
     </g>
    </g>
    <g id="xtick_3">
     <g id="line2d_8">
      <path clip-path="url(#pc013a3cb7e)" d="M 199.542857 388.8 
L 199.542857 43.2 
" style="fill:none;stroke:#000000;stroke-dasharray:1.000000,3.000000;stroke-dashoffset:0.0;stroke-width:0.5;"/>
     </g>
     <g id="line2d_9">
      <g>
       <use style="stroke:#000000;stroke-width:0.5;" x="199.542857143" xlink:href="#m2533a22794" y="388.8"/>
      </g>
     </g>
     <g id="line2d_10">
      <g>
       <use style="stroke:#000000;stroke-width:0.5;" x="199.542857143" xlink:href="#mc6f3032ef9" y="43.2"/>
      </g>
     </g>
     <g id="text_3">
      <!-- 20 -->
      <defs>
       <path d="M 19.1875 8.296875 
L 53.609375 8.296875 
L 53.609375 0 
L 7.328125 0 
L 7.328125 8.296875 
Q 12.9375 14.109375 22.625 23.890625 
Q 32.328125 33.6875 34.8125 36.53125 
Q 39.546875 41.84375 41.421875 45.53125 
Q 43.3125 49.21875 43.3125 52.78125 
Q 43.3125 58.59375 39.234375 62.25 
Q 35.15625 65.921875 28.609375 65.921875 
Q 23.96875 65.921875 18.8125 64.3125 
Q 13.671875 62.703125 7.8125 59.421875 
L 7.8125 69.390625 
Q 13.765625 71.78125 18.9375 73 
Q 24.125 74.21875 28.421875 74.21875 
Q 39.75 74.21875 46.484375 68.546875 
Q 53.21875 62.890625 53.21875 53.421875 
Q 53.21875 48.921875 51.53125 44.890625 
Q 49.859375 40.875 45.40625 35.40625 
Q 44.1875 33.984375 37.640625 27.21875 
Q 31.109375 20.453125 19.1875 8.296875 
" id="BitstreamVeraSans-Roman-32"/>
      </defs>
      <g transform="translate(193.816607143 399.63859375)scale(0.09 -0.09)">
       <use xlink:href="#BitstreamVeraSans-Roman-32"/>
       <use x="63.623046875" xlink:href="#BitstreamVeraSans-Roman-30"/>
      </g>
     </g>
    </g>
    <g id="xtick_4">
     <g id="line2d_11">
      <path clip-path="url(#pc013a3cb7e)" d="M 263.314286 388.8 
L 263.314286 43.2 
" style="fill:none;stroke:#000000;stroke-dasharray:1.000000,3.000000;stroke-dashoffset:0.0;stroke-width:0.5;"/>
     </g>
     <g id="line2d_12">
      <g>
       <use style="stroke:#000000;stroke-width:0.5;" x="263.314285714" xlink:href="#m2533a22794" y="388.8"/>
      </g>
     </g>
     <g id="line2d_13">
      <g>
       <use style="stroke:#000000;stroke-width:0.5;" x="263.314285714" xlink:href="#mc6f3032ef9" y="43.2"/>
      </g>
     </g>
     <g id="text_4">
      <!-- 30 -->
      <defs>
       <path d="M 40.578125 39.3125 
Q 47.65625 37.796875 51.625 33 
Q 55.609375 28.21875 55.609375 21.1875 
Q 55.609375 10.40625 48.1875 4.484375 
Q 40.765625 -1.421875 27.09375 -1.421875 
Q 22.515625 -1.421875 17.65625 -0.515625 
Q 12.796875 0.390625 7.625 2.203125 
L 7.625 11.71875 
Q 11.71875 9.328125 16.59375 8.109375 
Q 21.484375 6.890625 26.8125 6.890625 
Q 36.078125 6.890625 40.9375 10.546875 
Q 45.796875 14.203125 45.796875 21.1875 
Q 45.796875 27.640625 41.28125 31.265625 
Q 36.765625 34.90625 28.71875 34.90625 
L 20.21875 34.90625 
L 20.21875 43.015625 
L 29.109375 43.015625 
Q 36.375 43.015625 40.234375 45.921875 
Q 44.09375 48.828125 44.09375 54.296875 
Q 44.09375 59.90625 40.109375 62.90625 
Q 36.140625 65.921875 28.71875 65.921875 
Q 24.65625 65.921875 20.015625 65.03125 
Q 15.375 64.15625 9.8125 62.3125 
L 9.8125 71.09375 
Q 15.4375 72.65625 20.34375 73.4375 
Q 25.25 74.21875 29.59375 74.21875 
Q 40.828125 74.21875 47.359375 69.109375 
Q 53.90625 64.015625 53.90625 55.328125 
Q 53.90625 49.265625 50.4375 45.09375 
Q 46.96875 40.921875 40.578125 39.3125 
" id="BitstreamVeraSans-Roman-33"/>
      </defs>
      <g transform="translate(257.588035714 399.63859375)scale(0.09 -0.09)">
       <use xlink:href="#BitstreamVeraSans-Roman-33"/>
       <use x="63.623046875" xlink:href="#BitstreamVeraSans-Roman-30"/>
      </g>
     </g>
    </g>
    <g id="xtick_5">
     <g id="line2d_14">
      <path clip-path="url(#pc013a3cb7e)" d="M 327.085714 388.8 
L 327.085714 43.2 
" style="fill:none;stroke:#000000;stroke-dasharray:1.000000,3.000000;stroke-dashoffset:0.0;stroke-width:0.5;"/>
     </g>
     <g id="line2d_15">
      <g>
       <use style="stroke:#000000;stroke-width:0.5;" x="327.085714286" xlink:href="#m2533a22794" y="388.8"/>
      </g>
     </g>
     <g id="line2d_16">
      <g>
       <use style="stroke:#000000;stroke-width:0.5;" x="327.085714286" xlink:href="#mc6f3032ef9" y="43.2"/>
      </g>
     </g>
     <g id="text_5">
      <!-- 40 -->
      <defs>
       <path d="M 37.796875 64.3125 
L 12.890625 25.390625 
L 37.796875 25.390625 
z
M 35.203125 72.90625 
L 47.609375 72.90625 
L 47.609375 25.390625 
L 58.015625 25.390625 
L 58.015625 17.1875 
L 47.609375 17.1875 
L 47.609375 0 
L 37.796875 0 
L 37.796875 17.1875 
L 4.890625 17.1875 
L 4.890625 26.703125 
z
" id="BitstreamVeraSans-Roman-34"/>
      </defs>
      <g transform="translate(321.359464286 399.63859375)scale(0.09 -0.09)">
       <use xlink:href="#BitstreamVeraSans-Roman-34"/>
       <use x="63.623046875" xlink:href="#BitstreamVeraSans-Roman-30"/>
      </g>
     </g>
    </g>
    <g id="xtick_6">
     <g id="line2d_17">
      <path clip-path="url(#pc013a3cb7e)" d="M 390.857143 388.8 
L 390.857143 43.2 
" style="fill:none;stroke:#000000;stroke-dasharray:1.000000,3.000000;stroke-dashoffset:0.0;stroke-width:0.5;"/>
     </g>
     <g id="line2d_18">
      <g>
       <use style="stroke:#000000;stroke-width:0.5;" x="390.857142857" xlink:href="#m2533a22794" y="388.8"/>
      </g>
     </g>
     <g id="line2d_19">
      <g>
       <use style="stroke:#000000;stroke-width:0.5;" x="390.857142857" xlink:href="#mc6f3032ef9" y="43.2"/>
      </g>
     </g>
     <g id="text_6">
      <!-- 50 -->
      <defs>
       <path d="M 10.796875 72.90625 
L 49.515625 72.90625 
L 49.515625 64.59375 
L 19.828125 64.59375 
L 19.828125 46.734375 
Q 21.96875 47.46875 24.109375 47.828125 
Q 26.265625 48.1875 28.421875 48.1875 
Q 40.625 48.1875 47.75 41.5 
Q 54.890625 34.8125 54.890625 23.390625 
Q 54.890625 11.625 47.5625 5.09375 
Q 40.234375 -1.421875 26.90625 -1.421875 
Q 22.3125 -1.421875 17.546875 -0.640625 
Q 12.796875 0.140625 7.71875 1.703125 
L 7.71875 11.625 
Q 12.109375 9.234375 16.796875 8.0625 
Q 21.484375 6.890625 26.703125 6.890625 
Q 35.15625 6.890625 40.078125 11.328125 
Q 45.015625 15.765625 45.015625 23.390625 
Q 45.015625 31 40.078125 35.4375 
Q 35.15625 39.890625 26.703125 39.890625 
Q 22.75 39.890625 18.8125 39.015625 
Q 14.890625 38.140625 10.796875 36.28125 
z
" id="BitstreamVeraSans-Roman-35"/>
      </defs>
      <g transform="translate(385.130892857 399.63859375)scale(0.09 -0.09)">
       <use xlink:href="#BitstreamVeraSans-Roman-35"/>
       <use x="63.623046875" xlink:href="#BitstreamVeraSans-Roman-30"/>
      </g>
     </g>
    </g>
    <g id="xtick_7">
     <g id="line2d_20">
      <path clip-path="url(#pc013a3cb7e)" d="M 454.628571 388.8 
L 454.628571 43.2 
" style="fill:none;stroke:#000000;stroke-dasharray:1.000000,3.000000;stroke-dashoffset:0.0;stroke-width:0.5;"/>
     </g>
     <g id="line2d_21">
      <g>
       <use style="stroke:#000000;stroke-width:0.5;" x="454.628571429" xlink:href="#m2533a22794" y="388.8"/>
      </g>
     </g>
     <g id="line2d_22">
      <g>
       <use style="stroke:#000000;stroke-width:0.5;" x="454.628571429" xlink:href="#mc6f3032ef9" y="43.2"/>
      </g>
     </g>
     <g id="text_7">
      <!-- 60 -->
      <defs>
       <path d="M 33.015625 40.375 
Q 26.375 40.375 22.484375 35.828125 
Q 18.609375 31.296875 18.609375 23.390625 
Q 18.609375 15.53125 22.484375 10.953125 
Q 26.375 6.390625 33.015625 6.390625 
Q 39.65625 6.390625 43.53125 10.953125 
Q 47.40625 15.53125 47.40625 23.390625 
Q 47.40625 31.296875 43.53125 35.828125 
Q 39.65625 40.375 33.015625 40.375 
M 52.59375 71.296875 
L 52.59375 62.3125 
Q 48.875 64.0625 45.09375 64.984375 
Q 41.3125 65.921875 37.59375 65.921875 
Q 27.828125 65.921875 22.671875 59.328125 
Q 17.53125 52.734375 16.796875 39.40625 
Q 19.671875 43.65625 24.015625 45.921875 
Q 28.375 48.1875 33.59375 48.1875 
Q 44.578125 48.1875 50.953125 41.515625 
Q 57.328125 34.859375 57.328125 23.390625 
Q 57.328125 12.15625 50.6875 5.359375 
Q 44.046875 -1.421875 33.015625 -1.421875 
Q 20.359375 -1.421875 13.671875 8.265625 
Q 6.984375 17.96875 6.984375 36.375 
Q 6.984375 53.65625 15.1875 63.9375 
Q 23.390625 74.21875 37.203125 74.21875 
Q 40.921875 74.21875 44.703125 73.484375 
Q 48.484375 72.75 52.59375 71.296875 
" id="BitstreamVeraSans-Roman-36"/>
      </defs>
      <g transform="translate(448.902321429 399.63859375)scale(0.09 -0.09)">
       <use xlink:href="#BitstreamVeraSans-Roman-36"/>
       <use x="63.623046875" xlink:href="#BitstreamVeraSans-Roman-30"/>
      </g>
     </g>
    </g>
    <g id="xtick_8">
     <g id="line2d_23">
      <path clip-path="url(#pc013a3cb7e)" d="M 518.4 388.8 
L 518.4 43.2 
" style="fill:none;stroke:#000000;stroke-dasharray:1.000000,3.000000;stroke-dashoffset:0.0;stroke-width:0.5;"/>
     </g>
     <g id="line2d_24">
      <g>
       <use style="stroke:#000000;stroke-width:0.5;" x="518.4" xlink:href="#m2533a22794" y="388.8"/>
      </g>
     </g>
     <g id="line2d_25">
      <g>
       <use style="stroke:#000000;stroke-width:0.5;" x="518.4" xlink:href="#mc6f3032ef9" y="43.2"/>
      </g>
     </g>
     <g id="text_8">
      <!-- 70 -->
      <defs>
       <path d="M 8.203125 72.90625 
L 55.078125 72.90625 
L 55.078125 68.703125 
L 28.609375 0 
L 18.3125 0 
L 43.21875 64.59375 
L 8.203125 64.59375 
z
" id="BitstreamVeraSans-Roman-37"/>
      </defs>
      <g transform="translate(512.67375 399.63859375)scale(0.09 -0.09)">
       <use xlink:href="#BitstreamVeraSans-Roman-37"/>
       <use x="63.623046875" xlink:href="#BitstreamVeraSans-Roman-30"/>
      </g>
     </g>
    </g>
    <g id="text_9">
     <!-- Time [s] -->
     <defs>
      <path d="M 52 44.1875 
Q 55.375 50.25 60.0625 53.125 
Q 64.75 56 71.09375 56 
Q 79.640625 56 84.28125 50.015625 
Q 88.921875 44.046875 88.921875 33.015625 
L 88.921875 0 
L 79.890625 0 
L 79.890625 32.71875 
Q 79.890625 40.578125 77.09375 44.375 
Q 74.3125 48.1875 68.609375 48.1875 
Q 61.625 48.1875 57.5625 43.546875 
Q 53.515625 38.921875 53.515625 30.90625 
L 53.515625 0 
L 44.484375 0 
L 44.484375 32.71875 
Q 44.484375 40.625 41.703125 44.40625 
Q 38.921875 48.1875 33.109375 48.1875 
Q 26.21875 48.1875 22.15625 43.53125 
Q 18.109375 38.875 18.109375 30.90625 
L 18.109375 0 
L 9.078125 0 
L 9.078125 54.6875 
L 18.109375 54.6875 
L 18.109375 46.1875 
Q 21.1875 51.21875 25.484375 53.609375 
Q 29.78125 56 35.6875 56 
Q 41.65625 56 45.828125 52.96875 
Q 50 49.953125 52 44.1875 
" id="BitstreamVeraSans-Roman-6d"/>
      <path d="M 56.203125 29.59375 
L 56.203125 25.203125 
L 14.890625 25.203125 
Q 15.484375 15.921875 20.484375 11.0625 
Q 25.484375 6.203125 34.421875 6.203125 
Q 39.59375 6.203125 44.453125 7.46875 
Q 49.3125 8.734375 54.109375 11.28125 
L 54.109375 2.78125 
Q 49.265625 0.734375 44.1875 -0.34375 
Q 39.109375 -1.421875 33.890625 -1.421875 
Q 20.796875 -1.421875 13.15625 6.1875 
Q 5.515625 13.8125 5.515625 26.8125 
Q 5.515625 40.234375 12.765625 48.109375 
Q 20.015625 56 32.328125 56 
Q 43.359375 56 49.78125 48.890625 
Q 56.203125 41.796875 56.203125 29.59375 
M 47.21875 32.234375 
Q 47.125 39.59375 43.09375 43.984375 
Q 39.0625 48.390625 32.421875 48.390625 
Q 24.90625 48.390625 20.390625 44.140625 
Q 15.875 39.890625 15.1875 32.171875 
z
" id="BitstreamVeraSans-Roman-65"/>
      <path d="M 30.421875 75.984375 
L 30.421875 -13.1875 
L 9.71875 -13.1875 
L 9.71875 -6.203125 
L 21.390625 -6.203125 
L 21.390625 69 
L 9.71875 69 
L 9.71875 75.984375 
z
" id="BitstreamVeraSans-Roman-5d"/>
      <path d="M -0.296875 72.90625 
L 61.375 72.90625 
L 61.375 64.59375 
L 35.5 64.59375 
L 35.5 0 
L 25.59375 0 
L 25.59375 64.59375 
L -0.296875 64.59375 
z
" id="BitstreamVeraSans-Roman-54"/>
      <path d="M 8.59375 75.984375 
L 29.296875 75.984375 
L 29.296875 69 
L 17.578125 69 
L 17.578125 -6.203125 
L 29.296875 -6.203125 
L 29.296875 -13.1875 
L 8.59375 -13.1875 
z
" id="BitstreamVeraSans-Roman-5b"/>
      <path id="BitstreamVeraSans-Roman-20"/>
      <path d="M 9.421875 54.6875 
L 18.40625 54.6875 
L 18.40625 0 
L 9.421875 0 
z
M 9.421875 75.984375 
L 18.40625 75.984375 
L 18.40625 64.59375 
L 9.421875 64.59375 
z
" id="BitstreamVeraSans-Roman-69"/>
      <path d="M 44.28125 53.078125 
L 44.28125 44.578125 
Q 40.484375 46.53125 36.375 47.5 
Q 32.28125 48.484375 27.875 48.484375 
Q 21.1875 48.484375 17.84375 46.4375 
Q 14.5 44.390625 14.5 40.28125 
Q 14.5 37.15625 16.890625 35.375 
Q 19.28125 33.59375 26.515625 31.984375 
L 29.59375 31.296875 
Q 39.15625 29.25 43.1875 25.515625 
Q 47.21875 21.78125 47.21875 15.09375 
Q 47.21875 7.46875 41.1875 3.015625 
Q 35.15625 -1.421875 24.609375 -1.421875 
Q 20.21875 -1.421875 15.453125 -0.5625 
Q 10.6875 0.296875 5.421875 2 
L 5.421875 11.28125 
Q 10.40625 8.6875 15.234375 7.390625 
Q 20.0625 6.109375 24.8125 6.109375 
Q 31.15625 6.109375 34.5625 8.28125 
Q 37.984375 10.453125 37.984375 14.40625 
Q 37.984375 18.0625 35.515625 20.015625 
Q 33.0625 21.96875 24.703125 23.78125 
L 21.578125 24.515625 
Q 13.234375 26.265625 9.515625 29.90625 
Q 5.8125 33.546875 5.8125 39.890625 
Q 5.8125 47.609375 11.28125 51.796875 
Q 16.75 56 26.8125 56 
Q 31.78125 56 36.171875 55.265625 
Q 40.578125 54.546875 44.28125 53.078125 
" id="BitstreamVeraSans-Roman-73"/>
     </defs>
     <g transform="translate(276.76546875 413.34890625)scale(0.09 -0.09)">
      <use xlink:href="#BitstreamVeraSans-Roman-54"/>
      <use x="61.037109375" xlink:href="#BitstreamVeraSans-Roman-69"/>
      <use x="88.8203125" xlink:href="#BitstreamVeraSans-Roman-6d"/>
      <use x="186.232421875" xlink:href="#BitstreamVeraSans-Roman-65"/>
      <use x="247.755859375" xlink:href="#BitstreamVeraSans-Roman-20"/>
      <use x="279.54296875" xlink:href="#BitstreamVeraSans-Roman-5b"/>
      <use x="318.556640625" xlink:href="#BitstreamVeraSans-Roman-73"/>
      <use x="370.65625" xlink:href="#BitstreamVeraSans-Roman-5d"/>
     </g>
    </g>
   </g>
   <g id="matplotlib.axis_2">
    <g id="ytick_1">
     <g id="line2d_26">
      <path clip-path="url(#pc013a3cb7e)" d="M 72 388.8 
L 518.4 388.8 
" style="fill:none;stroke:#000000;stroke-dasharray:1.000000,3.000000;stroke-dashoffset:0.0;stroke-width:0.5;"/>
     </g>
     <g id="line2d_27">
      <defs>
       <path d="M 0 0 
L 4 0 
" id="mc351cff3aa" style="stroke:#000000;stroke-width:0.5;"/>
      </defs>
      <g>
       <use style="stroke:#000000;stroke-width:0.5;" x="72.0" xlink:href="#mc351cff3aa" y="388.8"/>
      </g>
     </g>
     <g id="line2d_28">
      <defs>
       <path d="M 0 0 
L -4 0 
" id="m1ed8736b36" style="stroke:#000000;stroke-width:0.5;"/>
      </defs>
      <g>
       <use style="stroke:#000000;stroke-width:0.5;" x="518.4" xlink:href="#m1ed8736b36" y="388.8"/>
      </g>
     </g>
     <g id="text_10">
      <!-- −3 -->
      <defs>
       <path d="M 10.59375 35.5 
L 73.1875 35.5 
L 73.1875 27.203125 
L 10.59375 27.203125 
z
" id="BitstreamVeraSans-Roman-2212"/>
      </defs>
      <g transform="translate(54.73203125 391.2834375)scale(0.09 -0.09)">
       <use xlink:href="#BitstreamVeraSans-Roman-2212"/>
       <use x="83.7890625" xlink:href="#BitstreamVeraSans-Roman-33"/>
      </g>
     </g>
    </g>
    <g id="ytick_2">
     <g id="line2d_29">
      <path clip-path="url(#pc013a3cb7e)" d="M 72 339.428571 
L 518.4 339.428571 
" style="fill:none;stroke:#000000;stroke-dasharray:1.000000,3.000000;stroke-dashoffset:0.0;stroke-width:0.5;"/>
     </g>
     <g id="line2d_30">
      <g>
       <use style="stroke:#000000;stroke-width:0.5;" x="72.0" xlink:href="#mc351cff3aa" y="339.428571429"/>
      </g>
     </g>
     <g id="line2d_31">
      <g>
       <use style="stroke:#000000;stroke-width:0.5;" x="518.4" xlink:href="#m1ed8736b36" y="339.428571429"/>
      </g>
     </g>
     <g id="text_11">
      <!-- −2 -->
      <g transform="translate(54.73203125 341.912008929)scale(0.09 -0.09)">
       <use xlink:href="#BitstreamVeraSans-Roman-2212"/>
       <use x="83.7890625" xlink:href="#BitstreamVeraSans-Roman-32"/>
      </g>
     </g>
    </g>
    <g id="ytick_3">
     <g id="line2d_32">
      <path clip-path="url(#pc013a3cb7e)" d="M 72 290.057143 
L 518.4 290.057143 
" style="fill:none;stroke:#000000;stroke-dasharray:1.000000,3.000000;stroke-dashoffset:0.0;stroke-width:0.5;"/>
     </g>
     <g id="line2d_33">
      <g>
       <use style="stroke:#000000;stroke-width:0.5;" x="72.0" xlink:href="#mc351cff3aa" y="290.057142857"/>
      </g>
     </g>
     <g id="line2d_34">
      <g>
       <use style="stroke:#000000;stroke-width:0.5;" x="518.4" xlink:href="#m1ed8736b36" y="290.057142857"/>
      </g>
     </g>
     <g id="text_12">
      <!-- −1 -->
      <g transform="translate(54.73203125 292.540580357)scale(0.09 -0.09)">
       <use xlink:href="#BitstreamVeraSans-Roman-2212"/>
       <use x="83.7890625" xlink:href="#BitstreamVeraSans-Roman-31"/>
      </g>
     </g>
    </g>
    <g id="ytick_4">
     <g id="line2d_35">
      <path clip-path="url(#pc013a3cb7e)" d="M 72 240.685714 
L 518.4 240.685714 
" style="fill:none;stroke:#000000;stroke-dasharray:1.000000,3.000000;stroke-dashoffset:0.0;stroke-width:0.5;"/>
     </g>
     <g id="line2d_36">
      <g>
       <use style="stroke:#000000;stroke-width:0.5;" x="72.0" xlink:href="#mc351cff3aa" y="240.685714286"/>
      </g>
     </g>
     <g id="line2d_37">
      <g>
       <use style="stroke:#000000;stroke-width:0.5;" x="518.4" xlink:href="#m1ed8736b36" y="240.685714286"/>
      </g>
     </g>
     <g id="text_13">
      <!-- 0 -->
      <g transform="translate(62.27375 243.169151786)scale(0.09 -0.09)">
       <use xlink:href="#BitstreamVeraSans-Roman-30"/>
      </g>
     </g>
    </g>
    <g id="ytick_5">
     <g id="line2d_38">
      <path clip-path="url(#pc013a3cb7e)" d="M 72 191.314286 
L 518.4 191.314286 
" style="fill:none;stroke:#000000;stroke-dasharray:1.000000,3.000000;stroke-dashoffset:0.0;stroke-width:0.5;"/>
     </g>
     <g id="line2d_39">
      <g>
       <use style="stroke:#000000;stroke-width:0.5;" x="72.0" xlink:href="#mc351cff3aa" y="191.314285714"/>
      </g>
     </g>
     <g id="line2d_40">
      <g>
       <use style="stroke:#000000;stroke-width:0.5;" x="518.4" xlink:href="#m1ed8736b36" y="191.314285714"/>
      </g>
     </g>
     <g id="text_14">
      <!-- 1 -->
      <g transform="translate(62.27375 193.797723214)scale(0.09 -0.09)">
       <use xlink:href="#BitstreamVeraSans-Roman-31"/>
      </g>
     </g>
    </g>
    <g id="ytick_6">
     <g id="line2d_41">
      <path clip-path="url(#pc013a3cb7e)" d="M 72 141.942857 
L 518.4 141.942857 
" style="fill:none;stroke:#000000;stroke-dasharray:1.000000,3.000000;stroke-dashoffset:0.0;stroke-width:0.5;"/>
     </g>
     <g id="line2d_42">
      <g>
       <use style="stroke:#000000;stroke-width:0.5;" x="72.0" xlink:href="#mc351cff3aa" y="141.942857143"/>
      </g>
     </g>
     <g id="line2d_43">
      <g>
       <use style="stroke:#000000;stroke-width:0.5;" x="518.4" xlink:href="#m1ed8736b36" y="141.942857143"/>
      </g>
     </g>
     <g id="text_15">
      <!-- 2 -->
      <g transform="translate(62.27375 144.426294643)scale(0.09 -0.09)">
       <use xlink:href="#BitstreamVeraSans-Roman-32"/>
      </g>
     </g>
    </g>
    <g id="ytick_7">
     <g id="line2d_44">
      <path clip-path="url(#pc013a3cb7e)" d="M 72 92.571429 
L 518.4 92.571429 
" style="fill:none;stroke:#000000;stroke-dasharray:1.000000,3.000000;stroke-dashoffset:0.0;stroke-width:0.5;"/>
     </g>
     <g id="line2d_45">
      <g>
       <use style="stroke:#000000;stroke-width:0.5;" x="72.0" xlink:href="#mc351cff3aa" y="92.5714285714"/>
      </g>
     </g>
     <g id="line2d_46">
      <g>
       <use style="stroke:#000000;stroke-width:0.5;" x="518.4" xlink:href="#m1ed8736b36" y="92.5714285714"/>
      </g>
     </g>
     <g id="text_16">
      <!-- 3 -->
      <g transform="translate(62.27375 95.0548660714)scale(0.09 -0.09)">
       <use xlink:href="#BitstreamVeraSans-Roman-33"/>
      </g>
     </g>
    </g>
    <g id="ytick_8">
     <g id="line2d_47">
      <path clip-path="url(#pc013a3cb7e)" d="M 72 43.2 
L 518.4 43.2 
" style="fill:none;stroke:#000000;stroke-dasharray:1.000000,3.000000;stroke-dashoffset:0.0;stroke-width:0.5;"/>
     </g>
     <g id="line2d_48">
      <g>
       <use style="stroke:#000000;stroke-width:0.5;" x="72.0" xlink:href="#mc351cff3aa" y="43.2"/>
      </g>
     </g>
     <g id="line2d_49">
      <g>
       <use style="stroke:#000000;stroke-width:0.5;" x="518.4" xlink:href="#m1ed8736b36" y="43.2"/>
      </g>
     </g>
     <g id="text_17">
      <!-- 4 -->
      <g transform="translate(62.27375 45.6834375)scale(0.09 -0.09)">
       <use xlink:href="#BitstreamVeraSans-Roman-34"/>
      </g>
     </g>
    </g>
    <g id="text_18">
     <!-- Acceleration [m/s^2] -->
     <defs>
      <path d="M 34.28125 27.484375 
Q 23.390625 27.484375 19.1875 25 
Q 14.984375 22.515625 14.984375 16.5 
Q 14.984375 11.71875 18.140625 8.90625 
Q 21.296875 6.109375 26.703125 6.109375 
Q 34.1875 6.109375 38.703125 11.40625 
Q 43.21875 16.703125 43.21875 25.484375 
L 43.21875 27.484375 
z
M 52.203125 31.203125 
L 52.203125 0 
L 43.21875 0 
L 43.21875 8.296875 
Q 40.140625 3.328125 35.546875 0.953125 
Q 30.953125 -1.421875 24.3125 -1.421875 
Q 15.921875 -1.421875 10.953125 3.296875 
Q 6 8.015625 6 15.921875 
Q 6 25.140625 12.171875 29.828125 
Q 18.359375 34.515625 30.609375 34.515625 
L 43.21875 34.515625 
L 43.21875 35.40625 
Q 43.21875 41.609375 39.140625 45 
Q 35.0625 48.390625 27.6875 48.390625 
Q 23 48.390625 18.546875 47.265625 
Q 14.109375 46.140625 10.015625 43.890625 
L 10.015625 52.203125 
Q 14.9375 54.109375 19.578125 55.046875 
Q 24.21875 56 28.609375 56 
Q 40.484375 56 46.34375 49.84375 
Q 52.203125 43.703125 52.203125 31.203125 
" id="BitstreamVeraSans-Roman-61"/>
      <path d="M 48.78125 52.59375 
L 48.78125 44.1875 
Q 44.96875 46.296875 41.140625 47.34375 
Q 37.3125 48.390625 33.40625 48.390625 
Q 24.65625 48.390625 19.8125 42.84375 
Q 14.984375 37.3125 14.984375 27.296875 
Q 14.984375 17.28125 19.8125 11.734375 
Q 24.65625 6.203125 33.40625 6.203125 
Q 37.3125 6.203125 41.140625 7.25 
Q 44.96875 8.296875 48.78125 10.40625 
L 48.78125 2.09375 
Q 45.015625 0.34375 40.984375 -0.53125 
Q 36.96875 -1.421875 32.421875 -1.421875 
Q 20.0625 -1.421875 12.78125 6.34375 
Q 5.515625 14.109375 5.515625 27.296875 
Q 5.515625 40.671875 12.859375 48.328125 
Q 20.21875 56 33.015625 56 
Q 37.15625 56 41.109375 55.140625 
Q 45.0625 54.296875 48.78125 52.59375 
" id="BitstreamVeraSans-Roman-63"/>
      <path d="M 46.6875 72.90625 
L 73.1875 45.703125 
L 63.375 45.703125 
L 41.890625 64.984375 
L 20.40625 45.703125 
L 10.59375 45.703125 
L 37.109375 72.90625 
z
" id="BitstreamVeraSans-Roman-5e"/>
      <path d="M 18.3125 70.21875 
L 18.3125 54.6875 
L 36.8125 54.6875 
L 36.8125 47.703125 
L 18.3125 47.703125 
L 18.3125 18.015625 
Q 18.3125 11.328125 20.140625 9.421875 
Q 21.96875 7.515625 27.59375 7.515625 
L 36.8125 7.515625 
L 36.8125 0 
L 27.59375 0 
Q 17.1875 0 13.234375 3.875 
Q 9.28125 7.765625 9.28125 18.015625 
L 9.28125 47.703125 
L 2.6875 47.703125 
L 2.6875 54.6875 
L 9.28125 54.6875 
L 9.28125 70.21875 
z
" id="BitstreamVeraSans-Roman-74"/>
      <path d="M 54.890625 33.015625 
L 54.890625 0 
L 45.90625 0 
L 45.90625 32.71875 
Q 45.90625 40.484375 42.875 44.328125 
Q 39.84375 48.1875 33.796875 48.1875 
Q 26.515625 48.1875 22.3125 43.546875 
Q 18.109375 38.921875 18.109375 30.90625 
L 18.109375 0 
L 9.078125 0 
L 9.078125 54.6875 
L 18.109375 54.6875 
L 18.109375 46.1875 
Q 21.34375 51.125 25.703125 53.5625 
Q 30.078125 56 35.796875 56 
Q 45.21875 56 50.046875 50.171875 
Q 54.890625 44.34375 54.890625 33.015625 
" id="BitstreamVeraSans-Roman-6e"/>
      <path d="M 34.1875 63.1875 
L 20.796875 26.90625 
L 47.609375 26.90625 
z
M 28.609375 72.90625 
L 39.796875 72.90625 
L 67.578125 0 
L 57.328125 0 
L 50.6875 18.703125 
L 17.828125 18.703125 
L 11.1875 0 
L 0.78125 0 
z
" id="BitstreamVeraSans-Roman-41"/>
      <path d="M 9.421875 75.984375 
L 18.40625 75.984375 
L 18.40625 0 
L 9.421875 0 
z
" id="BitstreamVeraSans-Roman-6c"/>
      <path d="M 30.609375 48.390625 
Q 23.390625 48.390625 19.1875 42.75 
Q 14.984375 37.109375 14.984375 27.296875 
Q 14.984375 17.484375 19.15625 11.84375 
Q 23.34375 6.203125 30.609375 6.203125 
Q 37.796875 6.203125 41.984375 11.859375 
Q 46.1875 17.53125 46.1875 27.296875 
Q 46.1875 37.015625 41.984375 42.703125 
Q 37.796875 48.390625 30.609375 48.390625 
M 30.609375 56 
Q 42.328125 56 49.015625 48.375 
Q 55.71875 40.765625 55.71875 27.296875 
Q 55.71875 13.875 49.015625 6.21875 
Q 42.328125 -1.421875 30.609375 -1.421875 
Q 18.84375 -1.421875 12.171875 6.21875 
Q 5.515625 13.875 5.515625 27.296875 
Q 5.515625 40.765625 12.171875 48.375 
Q 18.84375 56 30.609375 56 
" id="BitstreamVeraSans-Roman-6f"/>
      <path d="M 41.109375 46.296875 
Q 39.59375 47.171875 37.8125 47.578125 
Q 36.03125 48 33.890625 48 
Q 26.265625 48 22.1875 43.046875 
Q 18.109375 38.09375 18.109375 28.8125 
L 18.109375 0 
L 9.078125 0 
L 9.078125 54.6875 
L 18.109375 54.6875 
L 18.109375 46.1875 
Q 20.953125 51.171875 25.484375 53.578125 
Q 30.03125 56 36.53125 56 
Q 37.453125 56 38.578125 55.875 
Q 39.703125 55.765625 41.0625 55.515625 
z
" id="BitstreamVeraSans-Roman-72"/>
      <path d="M 25.390625 72.90625 
L 33.6875 72.90625 
L 8.296875 -9.28125 
L 0 -9.28125 
z
" id="BitstreamVeraSans-Roman-2f"/>
     </defs>
     <g transform="translate(47.8603125 263.8603125)rotate(-90.0)scale(0.09 -0.09)">
      <use xlink:href="#BitstreamVeraSans-Roman-41"/>
      <use x="68.392578125" xlink:href="#BitstreamVeraSans-Roman-63"/>
      <use x="123.373046875" xlink:href="#BitstreamVeraSans-Roman-63"/>
      <use x="178.353515625" xlink:href="#BitstreamVeraSans-Roman-65"/>
      <use x="239.876953125" xlink:href="#BitstreamVeraSans-Roman-6c"/>
      <use x="267.66015625" xlink:href="#BitstreamVeraSans-Roman-65"/>
      <use x="329.18359375" xlink:href="#BitstreamVeraSans-Roman-72"/>
      <use x="370.296875" xlink:href="#BitstreamVeraSans-Roman-61"/>
      <use x="431.576171875" xlink:href="#BitstreamVeraSans-Roman-74"/>
      <use x="470.78515625" xlink:href="#BitstreamVeraSans-Roman-69"/>
      <use x="498.568359375" xlink:href="#BitstreamVeraSans-Roman-6f"/>
      <use x="559.75" xlink:href="#BitstreamVeraSans-Roman-6e"/>
      <use x="623.12890625" xlink:href="#BitstreamVeraSans-Roman-20"/>
      <use x="654.916015625" xlink:href="#BitstreamVeraSans-Roman-5b"/>
      <use x="693.9296875" xlink:href="#BitstreamVeraSans-Roman-6d"/>
      <use x="791.341796875" xlink:href="#BitstreamVeraSans-Roman-2f"/>
      <use x="825.033203125" xlink:href="#BitstreamVeraSans-Roman-73"/>
      <use x="877.1328125" xlink:href="#BitstreamVeraSans-Roman-5e"/>
      <use x="960.921875" xlink:href="#BitstreamVeraSans-Roman-32"/>
      <use x="1024.544921875" xlink:href="#BitstreamVeraSans-Roman-5d"/>
     </g>
    </g>
   </g>
  </g>
 </g>
 <defs>
  <clipPath id="pc013a3cb7e">
   <rect height="345.6" width="446.4" x="72.0" y="43.2"/>
  </clipPath>
 </defs>
</svg>
